<svg width="18" height="14" viewBox="0 0 18 14" fill="none" xmlns="http://www.w3.org/2000/svg">
<path d="M18 1.65632C17.3379 1.93749 16.6268 2.12756 15.8791 2.213C16.6422 1.77569 17.2268 1.08271 17.5028 0.257952C16.7779 0.66998 15.9846 0.960048 15.1574 1.11556C14.4842 0.428779 13.5241 0 12.462 0C10.4234 0 8.77003 1.58169 8.77003 3.53391C8.77003 3.81052 8.80258 4.08038 8.86516 4.33947C5.79624 4.19186 3.07545 2.78497 1.25428 0.647183C0.936276 1.16929 0.754254 1.77633 0.754254 2.42402C0.754254 3.64991 1.40622 4.73153 2.39688 5.36512C1.81043 5.34773 1.23685 5.19623 0.724084 4.9233V4.96795C0.724084 6.68033 1.99671 8.10817 3.68605 8.4329C3.37572 8.51427 3.05005 8.55679 2.71312 8.55679C2.47491 8.55679 2.24379 8.53521 2.01802 8.49457C2.48792 9.89809 3.85163 10.9197 5.46699 10.9486C4.20323 11.8967 2.61084 12.4619 0.881321 12.4619C0.583433 12.4619 0.289023 12.4449 0 12.4115C1.63438 13.4145 3.57495 14 5.66031 14C12.452 14 16.1664 8.61508 16.1664 3.94522C16.1664 3.79191 16.1629 3.63974 16.1551 3.48812C16.8788 2.98716 17.5035 2.36688 18 1.65632Z" fill="black"/>
</svg>
